<?xml version="1.0" standalone="no"?>
<!DOCTYPE svg PUBLIC "-//W3C//DTD SVG 20010904//EN"
 "http://www.w3.org/TR/2001/REC-SVG-20010904/DTD/svg10.dtd">
<svg version="1.0" xmlns="http://www.w3.org/2000/svg"
 width="300.000000pt" height="300.000000pt" viewBox="0 0 300.000000 300.000000"
 preserveAspectRatio="xMidYMid meet">
<metadata>
Created by potrace 1.10, written by Peter Selinger 2001-2011
</metadata>
<g transform="translate(0.000000,300.000000) scale(0.100000,-0.100000)"
fill="#000000" stroke="none">
<path d="M1000 2735 c-267 -134 -479 -244 -472 -244 7 -1 224 105 483 234 258
129 478 235 488 235 10 0 288 -135 618 -300 331 -165 607 -300 614 -300 8 -1
-20 -19 -61 -41 -42 -22 -62 -37 -47 -34 16 3 47 17 70 32 36 23 45 24 72 14
17 -6 38 -11 46 -10 18 0 -1291 658 -1311 658 -8 0 -233 -110 -500 -244z"/>
<path d="M1038 2692 c-240 -120 -444 -224 -452 -231 -13 -11 -21 -10 -48 6
l-33 20 -172 -86 -173 -86 0 -815 0 -815 670 -335 670 -335 670 335 670 335 0
818 0 817 -87 -43 -88 -44 -39 23 -39 22 -544 -271 -543 -272 -580 290 c-319
159 -580 292 -580 295 0 4 32 22 71 40 39 19 66 36 60 38 -5 2 -24 -4 -41 -13
-26 -14 -37 -14 -61 -5 l-29 12 43 22 c40 21 43 21 77 5 l34 -17 503 252 503
251 576 -288 c317 -158 578 -286 581 -284 7 8 -70 48 -606 315 -291 146 -535
262 -550 262 -14 0 -223 -98 -463 -218z m-513 -238 c25 -10 -2 -24 -45 -24
-33 1 -34 2 -16 15 22 16 36 18 61 9z m-170 -80 c14 -6 13 -10 -11 -29 -25
-20 -27 -25 -15 -39 7 -9 28 -20 45 -24 l31 -9 -39 -20 c-30 -16 -35 -21 -22
-26 9 -4 14 -3 11 2 -13 23 67 30 93 8 11 -8 8 -14 -14 -25 -26 -14 -26 -14
-8 -32 11 -10 30 -21 44 -24 16 -4 11 1 -14 15 l-40 21 33 17 c31 17 34 16 75
-3 l43 -21 -28 -14 c-16 -8 -29 -19 -29 -24 0 -5 11 -2 25 7 13 9 30 16 38 16
7 0 193 -89 411 -198 l398 -199 -28 -20 -28 -21 34 -21 c19 -11 40 -21 45 -21
6 1 -8 10 -29 22 l-40 20 33 18 c32 16 34 16 82 -9 l49 -26 49 26 c45 23 51
24 77 12 27 -13 27 -13 10 1 -11 9 -18 18 -15 20 2 2 123 63 269 136 146 72
270 136 277 142 8 6 23 4 45 -7 30 -15 31 -15 13 0 -20 16 -20 16 0 31 19 15
36 14 80 0 11 -4 5 1 -12 10 l-33 18 38 14 c43 17 69 19 97 7 19 -7 19 -7 1 7
-17 14 -17 15 5 29 13 8 57 32 97 53 62 32 79 37 112 31 22 -4 40 -10 40 -13
0 -4 -259 -136 -575 -295 l-575 -287 -40 20 -40 20 0 -47 c0 -27 0 -371 0
-765 0 -395 -2 -718 -5 -718 -3 0 -266 131 -585 290 l-580 290 0 715 c0 393 2
715 5 715 3 0 262 -129 576 -286 314 -157 574 -283 577 -280 3 3 3 8 1 10 -2
2 -262 133 -577 291 -467 233 -576 284 -588 274 -12 -10 -14 -91 -12 -565 2
-305 2 -554 0 -554 -2 0 -15 6 -30 14 l-27 14 5 608 5 609 70 37 c77 41 76 41
100 32z m2465 -182 c0 -85 -1 -89 -25 -100 -14 -7 -27 -12 -28 -12 -1 0 -2 41
-2 90 0 70 3 93 15 100 35 22 40 12 40 -78z m-70 27 c0 -22 -3 -38 -8 -35 -4
2 -22 -2 -40 -9 -18 -8 -34 -15 -37 -15 -7 -1 -588 -294 -605 -305 -8 -5 -17
-10 -20 -10 -21 0 -462 -230 -470 -245 -6 -11 -10 -239 -11 -583 l-1 -565 -29
-12 c-27 -12 -29 -16 -29 -67 0 -53 0 -53 23 -42 32 17 35 23 10 17 -19 -5
-22 -2 -21 31 0 26 6 41 19 49 15 10 19 9 19 0 2 -47 11 -155 14 -164 3 -6
-11 -18 -30 -27 l-34 -17 0 -96 c0 -85 -2 -95 -15 -84 -22 18 -127 70 -142 70
-8 0 -13 14 -13 35 l0 35 41 -20 c52 -27 69 -15 69 47 0 40 2 43 19 33 11 -5
23 -10 28 -10 4 1 -3 7 -17 15 l-25 13 -5 355 -5 355 27 -14 c36 -18 38 -18
38 9 0 18 -2 19 -10 7 -15 -23 -45 1 -45 36 0 37 31 46 44 12 9 -22 10 -22 10
-2 1 15 -8 25 -28 34 l-30 12 5 186 c2 103 4 191 4 195 0 4 9 3 20 -3 18 -10
20 -21 20 -146 l0 -135 -22 6 c-21 5 -21 5 2 -9 l25 -14 6 176 c4 97 7 209 8
247 l1 70 363 184 c199 101 389 198 422 216 33 18 62 31 65 29 4 -1 24 8 45
21 22 14 92 50 155 80 63 31 131 64 150 74 19 11 36 19 38 20 1 1 2 -17 2 -40z
m0 -764 l0 -715 -580 -290 c-319 -159 -582 -290 -585 -290 -3 0 -5 322 -5 715
l0 715 578 289 c317 160 580 290 585 290 4 1 7 -321 7 -714z m61 486 c2 -116
0 -134 -14 -143 -16 -8 -17 3 -17 131 0 102 3 141 13 144 6 2 13 4 14 3 1 -1
3 -61 4 -135z m9 -194 c0 -48 -3 -55 -25 -65 -25 -12 -25 -11 -25 42 0 51 9
65 48 75 1 1 2 -23 2 -52z m-12 -114 c-4 -50 -34 -59 -36 -11 -1 38 4 48 24
48 11 0 14 -9 12 -37z m-1315 10 c4 -2 7 -47 7 -99 0 -52 -3 -94 -7 -94 -5 1
-18 6 -31 13 -20 12 -23 22 -26 105 l-4 92 26 -6 c15 -4 30 -9 35 -11z m1322
-498 l0 -444 -72 -40 c-70 -37 -73 -38 -74 -18 -2 22 -2 22 -6 0 -4 -19 -76
-59 -394 -217 -214 -107 -398 -198 -410 -201 -17 -6 -20 -3 -17 14 2 16 98 68
452 246 247 124 455 230 463 236 8 7 13 34 13 74 0 54 3 63 23 74 18 9 19 10
2 6 -20 -5 -20 0 -20 345 0 301 2 352 15 360 8 5 17 10 20 10 3 0 5 -200 5
-445z m-2604 -95 c13 -8 19 -21 19 -45 0 -33 -1 -34 -25 -23 -19 9 -25 19 -25
45 0 36 2 38 31 23z m-3 -84 c20 -10 24 -22 26 -63 l1 -50 -30 14 c-27 13 -30
19 -30 64 0 54 0 54 33 35z m3 -116 c15 -9 19 -22 19 -65 0 -50 2 -55 34 -74
18 -12 41 -21 50 -21 12 0 16 -9 16 -34 l0 -33 -75 39 -75 39 0 80 c0 43 3 79
6 79 3 0 14 -5 25 -10z m172 -204 c19 -14 23 -46 6 -46 -23 0 -49 22 -49 40 0
23 17 25 43 6z m117 -82 l0 -33 -45 26 c-37 20 -45 30 -45 54 l0 29 45 -22
c40 -19 45 -26 45 -54z m140 -41 c63 -32 121 -64 128 -70 7 -7 18 -13 23 -13
11 0 281 -132 289 -141 3 -3 39 -21 80 -40 130 -59 160 -78 160 -104 0 -23 0
-23 -40 -8 -22 9 -40 20 -40 25 0 4 -5 8 -11 8 -5 0 -170 80 -365 177 -313
156 -354 179 -354 200 0 13 3 23 8 23 4 0 59 -26 122 -57z m1190 -292 c0 -24
-7 -32 -40 -49 l-40 -19 0 26 c0 23 29 49 78 70 1 1 2 -12 2 -28z m-249 -84
c12 -8 26 -5 53 11 l36 21 0 -30 c0 -23 -6 -32 -27 -40 -16 -5 -47 -19 -71
-31 -24 -11 -45 -18 -48 -16 -2 3 -5 38 -6 78 -1 61 1 75 18 87 18 13 19 11
24 -28 3 -23 12 -46 21 -52z m159 37 c0 -18 -27 -43 -47 -44 -19 0 -16 31 5
46 24 18 42 17 42 -2z"/>
<path d="M230 2275 c25 -13 50 -24 55 -24 6 0 -10 11 -35 24 -25 13 -49 24
-55 24 -5 0 10 -11 35 -24z"/>
<path d="M500 1895 c0 -25 -2 -45 -5 -45 -3 0 -24 9 -45 20 l-40 20 0 -50 c0
-54 -3 -56 -40 -35 -37 21 -40 19 -40 -33 0 -45 2 -49 35 -65 20 -9 38 -17 40
-17 3 0 5 20 5 45 0 25 2 45 5 45 3 0 24 -9 45 -20 l40 -20 0 50 c0 54 3 56
40 35 37 -21 40 -19 40 33 0 45 -2 49 -35 65 -20 9 -38 17 -40 17 -3 0 -5 -20
-5 -45z m44 9 c10 -4 16 -18 16 -36 0 -23 -4 -29 -16 -24 -9 3 -18 6 -20 6 -2
0 -4 14 -4 30 0 32 1 33 24 24z m-80 -60 c17 -7 23 -64 7 -64 -27 0 -41 15
-41 41 0 30 6 34 34 23z m-90 -70 c9 -3 16 -15 16 -26 0 -27 -32 -19 -36 10
-4 24 -3 25 20 16z"/>
<path d="M1250 500 c0 -54 -3 -56 -40 -35 -37 21 -40 19 -40 -33 0 -45 2 -49
35 -65 20 -9 38 -17 40 -17 3 0 5 20 5 45 0 49 3 51 40 30 37 -21 40 -19 40
35 0 48 -1 50 -40 70 l-40 20 0 -50z m58 -29 c3 -28 1 -33 -13 -27 -9 3 -19 6
-21 6 -2 0 -4 14 -4 31 0 45 34 36 38 -10z m-94 -27 c10 -4 16 -18 16 -35 0
-27 -2 -29 -20 -19 -12 6 -20 21 -20 35 0 27 1 28 24 19z"/>
<path d="M1868 1629 c-36 -18 -38 -22 -38 -69 0 -48 -1 -50 -40 -70 -39 -20
-40 -22 -40 -70 0 -28 2 -50 5 -50 2 0 20 8 40 17 34 16 35 19 35 70 0 53 0
53 45 75 44 22 45 23 45 70 0 26 -3 48 -7 48 -5 -1 -25 -10 -45 -21z m28 -40
c-1 -28 -46 -48 -46 -21 0 20 18 42 36 42 6 0 11 -10 10 -21z m-96 -148 c0
-11 -4 -23 -10 -26 -6 -4 -10 5 -10 19 0 14 5 26 10 26 6 0 10 -9 10 -19z"/>
<path d="M1703 1343 c-30 -15 -33 -20 -33 -65 0 -26 2 -48 5 -48 2 0 20 8 40
17 33 16 35 20 35 65 0 53 -1 54 -47 31z m20 -43 c-3 -11 -9 -23 -14 -26 -10
-6 -12 29 -2 39 13 13 21 7 16 -13z"/>
<path d="M2628 989 c-36 -19 -38 -22 -38 -69 0 -28 2 -50 5 -50 2 0 20 8 40
17 34 16 35 19 35 70 0 29 -1 53 -2 53 -2 -1 -20 -10 -40 -21z m12 -48 c0 -11
-4 -23 -10 -26 -6 -4 -10 5 -10 19 0 14 5 26 10 26 6 0 10 -9 10 -19z"/>
<path d="M2538 839 c-36 -18 -38 -22 -38 -69 l0 -50 45 22 c44 22 45 23 45 70
0 26 -3 48 -7 48 -5 -1 -25 -10 -45 -21z m32 -37 c0 -11 -11 -24 -25 -30 -22
-10 -25 -9 -25 6 0 21 19 42 37 42 7 0 13 -8 13 -18z"/>
<path d="M1282 2712 l-32 -18 43 -21 43 -21 39 20 39 20 -35 19 c-42 23 -56
23 -97 1z m77 -11 c25 -16 -20 -32 -48 -16 -18 9 -20 14 -10 18 21 8 43 8 58
-2z"/>
<path d="M1451 2711 l-35 -19 42 -21 42 -21 42 21 42 21 -35 19 c-18 10 -41
18 -49 18 -8 0 -31 -8 -49 -18z m86 -17 c5 -16 -36 -25 -59 -13 -10 6 -16 15
-12 20 8 13 66 7 71 -7z"/>
<path d="M1621 2711 l-35 -19 40 -20 39 -20 43 22 43 22 -36 17 c-44 21 -51
21 -94 -2z m84 -11 c3 -6 -4 -14 -16 -19 -25 -9 -59 -4 -59 9 0 19 65 27 75
10z"/>
<path d="M1373 1923 c-18 -9 -33 -20 -33 -23 0 -4 17 -15 38 -24 36 -17 40
-16 75 0 20 10 37 21 37 24 0 7 -66 40 -78 39 -4 0 -22 -8 -39 -16z m76 -12
c11 -7 10 -11 -7 -20 -26 -14 -49 -14 -57 -1 -16 25 32 41 64 21z"/>
<path d="M1543 1923 c-18 -9 -33 -20 -33 -23 0 -4 17 -15 38 -24 36 -17 40
-16 75 0 20 10 37 21 37 24 0 7 -66 40 -78 39 -4 0 -22 -8 -39 -16z m74 -20
c6 -16 -45 -29 -59 -15 -6 6 -7 15 -3 22 9 14 57 9 62 -7z"/>
</g>
</svg>
